<svg xmlns="http://www.w3.org/2000/svg" viewBox="0 0 64 64" width="64" height="64">
  <defs>
    <linearGradient id="wrenchGrad" x1="0%" y1="0%" x2="100%" y2="100%">
      <stop offset="0%" style="stop-color:#6366F1;stop-opacity:1" />
      <stop offset="100%" style="stop-color:#8B5CF6;stop-opacity:1" />
    </linearGradient>
  </defs>
  <!-- Wrench body -->
  <path d="M14 50 L36 28 
           C34 24 34 18 38 14 C42 10 50 10 54 14 L46 22 L48 28 L54 30 L58 22 
           C62 28 60 36 54 40 C48 46 40 44 36 40 
           L14 62 C12 64 8 64 6 62 C4 60 4 56 6 54 Z" 
        fill="url(#wrenchGrad)" stroke="#4F46E5" stroke-width="2" stroke-linecap="round" stroke-linejoin="round"/>
  <!-- Handle detail -->
  <path d="M10 54 L18 46" stroke="#fff" stroke-width="2" stroke-linecap="round" opacity="0.5"/>
  <!-- Bolt hole -->
  <circle cx="48" cy="24" r="3" fill="#1E1B4B" opacity="0.5"/>
</svg>
