<svg xmlns="http://www.w3.org/2000/svg" viewBox="0 0 64 64" width="64" height="64">
  <defs>
    <linearGradient id="flameGrad" x1="0%" y1="100%" x2="0%" y2="0%">
      <stop offset="0%" style="stop-color:#EF4444;stop-opacity:1" />
      <stop offset="50%" style="stop-color:#F59E0B;stop-opacity:1" />
      <stop offset="100%" style="stop-color:#FBBF24;stop-opacity:1" />
    </linearGradient>
  </defs>
  <!-- Main flame -->
  <path d="M32 4 C32 4 44 20 44 36 C44 48 40 56 32 60 C24 56 20 48 20 36 C20 20 32 4 32 4 Z
           M32 16 C32 16 38 26 38 36 C38 44 36 50 32 54 C28 50 26 44 26 36 C26 26 32 16 32 16 Z" 
        fill="url(#flameGrad)" stroke="#EF4444" stroke-width="2" stroke-linecap="round" stroke-linejoin="round"/>
  <!-- Inner flame -->
  <path d="M32 28 C32 28 36 34 36 40 C36 46 34 50 32 52 C30 50 28 46 28 40 C28 34 32 28 32 28 Z" 
        fill="#FEF3C7" opacity="0.9"/>
  <!-- Sparkles -->
  <circle cx="24" cy="12" r="2" fill="#FBBF24"/>
  <circle cx="42" cy="16" r="1.5" fill="#F59E0B"/>
</svg>
